<svg width="20" height="21" viewBox="0 0 20 21" fill="none" xmlns="http://www.w3.org/2000/svg">
<path d="M11.7604 10.5H3.83238H11.7604ZM3.83238 10.5C3.83238 10.225 3.77538 9.95002 3.66238 9.69202L1.28538 4.31402C0.52538 2.59402 2.34338 0.872021 4.01938 1.72302L17.8004 8.71702C19.2604 9.45702 19.2604 11.543 17.8004 12.283L4.02038 19.277C2.34338 20.128 0.52538 18.405 1.28538 16.686L3.66038 11.308C3.77263 11.0534 3.83053 10.7782 3.83038 10.5" fill="#4257D0"/>
<path d="M11.7604 10.5H3.83238C3.83238 10.225 3.77538 9.95002 3.66238 9.69202L1.28538 4.31402C0.52538 2.59402 2.34338 0.872021 4.01938 1.72302L17.8004 8.71702C19.2604 9.45702 19.2604 11.543 17.8004 12.283L4.02038 19.277C2.34338 20.128 0.52538 18.405 1.28538 16.686L3.66038 11.308C3.77263 11.0534 3.83053 10.7782 3.83038 10.5" stroke="white" stroke-width="1.5" stroke-linecap="round" stroke-linejoin="round"/>
</svg>
