<svg width="153" height="32" viewBox="0 0 153 32" fill="none" xmlns="http://www.w3.org/2000/svg">
<g clip-path="url(#clip0_2399_6085)">
<path d="M14.9531 24.4047L17.4998 16.2167C17.634 15.785 18.2144 15.7287 18.4271 16.1268L20.3828 19.7875L21.2559 21.9987C21.2963 22.1007 21.3031 22.2132 21.2754 22.3195L20.369 25.8044L19.0118 30.1677C18.8794 30.5935 18.3103 30.6561 18.0908 30.2689L14.9969 24.814C14.9265 24.6898 14.9106 24.5413 14.9531 24.4047Z" fill="#4257D0"/>
<path d="M18.5531 24.6608L18.4052 20.6144C18.3611 19.4069 19.9737 18.9919 20.5038 20.0744L21.3443 21.9559C21.4802 22.26 21.4935 22.6058 21.3814 22.9198L20.6165 25.0616C20.2047 26.2148 18.5146 25.8866 18.5531 24.6608Z" fill="#4257D0"/>
<path d="M3.30989 16.4563L0.922415 24.3879C0.793617 24.8158 1.23001 25.1937 1.62724 24.9983L18.1969 16.8457C18.458 16.7172 18.5591 16.393 18.4181 16.1359L15.5306 10.8721C15.4006 10.6352 15.1111 10.5418 14.8698 10.659L3.57506 16.1437C3.44737 16.2057 3.35119 16.3191 3.30989 16.4563Z" fill="url(#paint0_linear_2399_6085)"/>
<path d="M22.8957 7.55222L20.349 15.7403C20.2147 16.1719 19.6343 16.2282 19.4217 15.8302L17.4659 12.1695L16.5928 9.95831C16.5525 9.85624 16.5457 9.74376 16.5733 9.63747L17.4798 6.15256L18.8369 1.78918C18.9693 1.36344 19.5385 1.30086 19.758 1.6879L22.8518 7.14299C22.9223 7.2672 22.9382 7.41561 22.8957 7.55222Z" fill="#4257D0"/>
<path d="M19.2953 7.29613L19.4432 11.3425C19.4873 12.55 17.8747 12.965 17.3446 11.8826L16.5041 10.0011C16.3682 9.69697 16.3549 9.35113 16.467 9.03721L17.2319 6.89534C17.6437 5.74214 19.3338 6.07043 19.2953 7.29613Z" fill="#4257D0"/>
<path d="M34.5382 15.5007L36.9257 7.56909C37.0544 7.14121 36.6181 6.76329 36.2208 6.95875L19.6512 15.1113C19.39 15.2397 19.289 15.564 19.43 15.8211L22.3175 21.0849C22.4475 21.3218 22.737 21.4152 22.9783 21.298L34.2731 15.8133C34.4006 15.7512 34.497 15.6378 34.5382 15.5007Z" fill="url(#paint1_linear_2399_6085)"/>
<path d="M42.2302 17.3959L38.7653 10.4785H42.2049L44.6328 15.3975L48.4012 10.4785H51.8408L46.4538 17.3959L50.0451 24.5182H46.6055L44.0764 19.4454L40.0551 24.5182H36.6914L42.2302 17.3959ZM56.112 24.8C54.6957 24.8 53.6418 24.4584 52.9506 23.7752C52.2591 23.0749 51.9137 22.0928 51.9137 20.8289C51.9137 20.4702 51.939 20.0859 51.9895 19.676L53.7346 7.09668H56.8707L56.4155 10.4785H59.1722L58.7423 13.5273H55.9855L55.1509 19.4454L55.1004 19.9835C55.1004 21.0766 55.682 21.6231 56.8454 21.6231H57.6042L57.1742 24.8H56.112ZM60.9912 10.4785H64.102L63.8491 12.195C64.4055 11.546 65.0292 11.0421 65.7206 10.6835C66.4288 10.3077 67.1706 10.1198 67.9462 10.1198C68.2328 10.1198 68.5952 10.1711 69.0338 10.2735L68.6038 13.2454H67.3898C66.2937 13.2454 65.3665 13.5785 64.6078 14.2446C63.8658 14.8937 63.3938 15.8843 63.1915 17.2165L62.1799 24.5182H59.0438L60.9912 10.4785ZM74.5078 24.8768C73.2938 24.8768 72.1979 24.6036 71.2199 24.057C70.2589 23.5105 69.5087 22.759 68.969 21.8025C68.4296 20.8289 68.1597 19.7443 68.1597 18.5487C68.1597 18.2072 68.185 17.857 68.2356 17.4983C68.4212 16.149 68.9101 14.9107 69.7025 13.7835C70.5118 12.6562 71.5151 11.768 72.7121 11.119C73.9261 10.4529 75.2076 10.1198 76.5564 10.1198C77.7367 10.1198 78.7906 10.3931 79.7178 10.9397C80.6452 11.4862 81.3617 12.2377 81.8675 13.1942C82.3903 14.1336 82.6516 15.1925 82.6516 16.3711C82.6516 16.7297 82.6263 17.1055 82.5757 17.4983C82.5251 17.8741 82.4156 18.3096 82.2469 18.8049H71.2958C71.4309 19.7443 71.8269 20.5044 72.4845 21.0851C73.159 21.6658 73.9767 21.9562 74.9377 21.9562C75.6628 21.9562 76.3374 21.7854 76.961 21.4438C77.6019 21.1022 78.0991 20.6325 78.4532 20.0347H81.8169C81.2438 21.4865 80.2828 22.6565 78.9338 23.5446C77.6019 24.4328 76.1264 24.8768 74.5078 24.8768ZM79.5407 16.2173C79.4396 15.278 79.0772 14.5179 78.4532 13.9372C77.8462 13.3565 77.0875 13.0661 76.177 13.0661C75.1993 13.0661 74.2971 13.3565 73.4709 13.9372C72.6448 14.5179 72.0379 15.278 71.6499 16.2173H79.5407ZM100.824 15.7562C100.84 15.6537 100.849 15.5 100.849 15.295C100.849 14.646 100.655 14.1251 100.267 13.7322C99.8964 13.3394 99.4075 13.143 98.8005 13.143C98.0584 13.143 97.4009 13.3906 96.8278 13.8859C96.2714 14.3642 95.934 14.9876 95.8161 15.7562L94.6021 24.5182H91.466L92.68 15.7562C92.6967 15.6537 92.7053 15.5 92.7053 15.295C92.7053 14.646 92.5113 14.1251 92.1236 13.7322C91.7356 13.3394 91.2384 13.143 90.6314 13.143C89.8727 13.143 89.2151 13.3906 88.6587 13.8859C88.119 14.3642 87.7902 14.9876 87.6724 15.7562L86.4584 24.5182H83.3223L85.2697 10.4785H88.4058L88.2288 11.7595C88.7176 11.2471 89.2657 10.8543 89.8727 10.581C90.4964 10.2906 91.1373 10.1454 91.7948 10.1454C92.5536 10.1454 93.2278 10.3162 93.8181 10.6578C94.4251 10.9824 94.897 11.4521 95.2344 12.0669C95.8414 11.4691 96.5496 10.9995 97.3589 10.6578C98.1682 10.3162 98.9942 10.1454 99.8374 10.1454C101.102 10.1454 102.114 10.5554 102.872 11.3752C103.648 12.195 104.036 13.2881 104.036 14.6545C104.036 15.0132 104.01 15.3719 103.96 15.7306L102.746 24.5182H99.6098L100.824 15.7562ZM107.408 10.6578H109.305L108.976 13.0149C109.701 12.195 110.561 11.5545 111.556 11.0934C112.55 10.6152 113.604 10.376 114.717 10.376C115.914 10.376 116.968 10.6408 117.878 11.1702C118.806 11.6997 119.522 12.4342 120.028 13.3735C120.534 14.3129 120.787 15.3634 120.787 16.5248C120.787 16.8664 120.762 17.2165 120.711 17.5752C120.525 18.9074 120.045 20.1286 119.269 21.2388C118.511 22.332 117.558 23.203 116.411 23.8521C115.265 24.484 114.034 24.8 112.719 24.8C111.606 24.8 110.62 24.5694 109.76 24.1082C108.9 23.63 108.217 22.981 107.711 22.1611L106.801 28.9247H104.904L107.408 10.6578ZM114.312 12.195C113.351 12.195 112.441 12.4342 111.581 12.9124C110.721 13.3735 110.004 14.014 109.431 14.8339C108.858 15.6537 108.504 16.5675 108.369 17.5752C108.335 17.7631 108.318 18.0449 108.318 18.4206C108.318 19.2917 108.504 20.0774 108.875 20.7777C109.262 21.4609 109.794 21.9989 110.468 22.3917C111.159 22.7846 111.943 22.981 112.82 22.981C113.798 22.981 114.717 22.7504 115.577 22.2892C116.437 21.811 117.153 21.162 117.727 20.3421C118.3 19.5223 118.662 18.6 118.814 17.5752C118.848 17.1995 118.865 16.9347 118.865 16.781C118.865 15.8928 118.671 15.1072 118.283 14.424C117.912 13.7237 117.381 13.1771 116.69 12.7843C115.998 12.3915 115.206 12.195 114.312 12.195ZM133.768 22.1611C133.026 22.981 132.157 23.63 131.163 24.1082C130.185 24.5694 129.139 24.8 128.026 24.8C126.829 24.8 125.767 24.5353 124.84 24.0058C123.929 23.4763 123.221 22.7419 122.715 21.8025C122.209 20.8631 121.957 19.8127 121.957 18.6512C121.957 18.3096 121.982 17.9595 122.032 17.6008C122.218 16.2686 122.69 15.0559 123.449 13.9628C124.224 12.8526 125.185 11.9815 126.332 11.3496C127.478 10.7005 128.709 10.376 130.024 10.376C131.137 10.376 132.124 10.6152 132.984 11.0934C133.86 11.5545 134.552 12.2036 135.057 13.0405L135.386 10.6578H137.283L135.361 24.5182H133.439L133.768 22.1611ZM128.431 22.981C129.392 22.981 130.303 22.7504 131.163 22.2892C132.022 21.811 132.739 21.162 133.312 20.3421C133.885 19.5223 134.239 18.6085 134.375 17.6008C134.408 17.4129 134.425 17.1311 134.425 16.7554C134.425 15.8843 134.231 15.1072 133.843 14.424C133.472 13.7237 132.941 13.1771 132.25 12.7843C131.576 12.3915 130.8 12.195 129.923 12.195C128.945 12.195 128.026 12.4342 127.167 12.9124C126.307 13.3735 125.59 14.014 125.017 14.8339C124.443 15.6537 124.081 16.576 123.929 17.6008C123.895 17.9766 123.879 18.2413 123.879 18.395C123.879 19.2832 124.064 20.0774 124.435 20.7777C124.823 21.4609 125.362 21.9989 126.054 22.3917C126.745 22.7846 127.537 22.981 128.431 22.981ZM142.705 24.5182L138.962 10.6578H140.96L144.046 22.3405L150.368 10.6578H152.392L142.275 28.8991H140.201L142.705 24.5182Z" fill="black"/>
</g>
<defs>
<linearGradient id="paint0_linear_2399_6085" x1="13.1025" y1="9.74928" x2="7.37964" y2="27.6802" gradientUnits="userSpaceOnUse">
<stop stop-color="#2B3F91"/>
<stop offset="1" stop-color="#0D132B"/>
</linearGradient>
<linearGradient id="paint1_linear_2399_6085" x1="30.3358" y1="4.23436" x2="24.6128" y2="22.1653" gradientUnits="userSpaceOnUse">
<stop stop-color="#2B3F91"/>
<stop offset="1" stop-color="#0D132B"/>
</linearGradient>
<clipPath id="clip0_2399_6085">
<rect width="152" height="31" fill="white" transform="translate(0.5 0.521484)"/>
</clipPath>
</defs>
</svg>
